<svg xmlns="http://www.w3.org/2000/svg" width="1024" height="1024" viewBox="0 0 1024 1024">
<defs>
<linearGradient id="bg" x1="0" y1="0" x2="0" y2="1"><stop offset="0" stop-color="#2a3446"/><stop offset="1" stop-color="#0c111c"/></linearGradient>
<linearGradient id="sheen" x1="0" y1="0" x2="0" y2="1"><stop offset="0" stop-color="#fff" stop-opacity=".2"/><stop offset=".5" stop-color="#fff" stop-opacity="0"/></linearGradient>
<linearGradient id="arc" x1="0" y1="0" x2="1" y2="0"><stop offset="0" stop-color="#2ee59d"/><stop offset=".5" stop-color="#2fc4ff"/><stop offset="1" stop-color="#8e7dff"/></linearGradient>
</defs>
<rect x="100" y="100" width="824" height="824" rx="185" fill="url(#bg)"/>
<rect x="100" y="100" width="824" height="824" rx="185" fill="url(#sheen)"/>
<rect x="101.5" y="101.5" width="821" height="821" rx="184" fill="none" stroke="#fff" stroke-opacity=".16" stroke-width="3"/>
<path d="M295.5 665 A250 250 0 1 1 728.5 665" fill="none" stroke="#fff" stroke-opacity=".1" stroke-width="58" stroke-linecap="round"/>
<path d="M295.5 665 A250 250 0 0 1 688.78 363.22" fill="none" stroke="url(#arc)" stroke-width="58" stroke-linecap="round"/>
<line x1="512" y1="540" x2="648" y2="398" stroke="#000" stroke-opacity=".35" stroke-width="30" stroke-linecap="round" transform="translate(6 10)"/>
<line x1="512" y1="540" x2="648" y2="398" stroke="#fff" stroke-width="28" stroke-linecap="round"/>
<circle cx="512" cy="540" r="44" fill="#fff"/>
<circle cx="512" cy="540" r="17" fill="#1a2232"/>
<path d="M452 780V680M412 718l40-40 40 40" fill="none" stroke="#2ee59d" stroke-width="26" stroke-linecap="round" stroke-linejoin="round"/>
<path d="M572 680V780M532 742l40 40 40-40" fill="none" stroke="#2fc4ff" stroke-width="26" stroke-linecap="round" stroke-linejoin="round"/>
</svg>
